<?xml version="1.0" encoding="utf-8"?>
<!-- Generated by IcoMoon.io -->
<svg version="1.1" xmlns="http://www.w3.org/2000/svg" xmlns:xlink="http://www.w3.org/1999/xlink" width="2" height="32" viewBox="0 0 2 32">
<svg id="icon-bg-pattern-1" width="21" height="32" viewBox="0 0 21 32" x="0" y="0">
<path fill="#66e2dc" d="M5.333 0c2.946 0 5.333 2.388 5.333 5.333v16h-3.829c-3.776 0-6.838-3.061-6.838-6.838v-9.162c0-2.946 2.388-5.333 5.333-5.333z"></path>
<path fill="#191826" d="M10.667 21.333h5.333c2.945 0 5.333 2.388 5.333 5.333s-2.388 5.333-5.333 5.333-5.333-2.388-5.333-5.333v-5.333z"></path>
<path fill="#ffb964" d="M18.667 5.333c1.473 0 2.667 1.194 2.667 2.667s-1.194 2.667-2.667 2.667c-1.473 0-2.667-1.194-2.667-2.667s1.194-2.667 2.667-2.667z"></path>
<path fill="#fa7453" d="M18.667 0c1.473 0 2.667 1.194 2.667 2.667s-1.194 2.667-2.667 2.667c-1.473 0-2.667-1.194-2.667-2.667s1.194-2.667 2.667-2.667z"></path>
<path fill="#fa7453" d="M5.333 21.333c2.946 0 5.333 2.388 5.333 5.333s-2.388 5.333-5.333 5.333c-2.946 0-5.333-2.388-5.333-5.333s2.388-5.333 5.333-5.333z"></path>
<path fill="#191826" d="M13.333 0c1.473 0 2.667 1.194 2.667 2.667v5.333c0 1.473-1.194 2.667-2.667 2.667s-2.667-1.194-2.667-2.667v-5.333c0-1.473 1.194-2.667 2.667-2.667z"></path>
</svg>
<svg id="icon-bg-pattern-2" width="21" height="32" viewBox="0 0 21 32" x="48" y="0">
<path fill="#66e2dc" d="M16 5.333c2.945 0 5.333 2.388 5.333 5.333v10.667h-3.829c-3.776 0-6.838-3.061-6.838-6.838v-3.829c0-2.946 2.388-5.333 5.333-5.333z"></path>
<path fill="#fcfaf9" d="M8 5.333c1.473 0 2.667 1.194 2.667 2.667s-1.194 2.667-2.667 2.667c-1.473 0-2.667-1.194-2.667-2.667s1.194-2.667 2.667-2.667z"></path>
<path fill="#66e2dc" d="M2.667 0c1.473 0 2.667 1.194 2.667 2.667v5.333c0 1.473-1.194 2.667-2.667 2.667s-2.667-1.194-2.667-2.667v-5.333c0-1.473 1.194-2.667 2.667-2.667z"></path>
<path fill="#ffb964" d="M5.333 10.667c2.946 0 5.333 2.388 5.333 5.333s-2.388 5.333-5.333 5.333c-2.946 0-5.333-2.388-5.333-5.333s2.388-5.333 5.333-5.333z"></path>
</svg>
<svg id="icon-icon-android" width="27" height="32" viewBox="0 0 27 32" x="96" y="0">
<path d="M21.379 10.621v13.36c0 0.803-0.534 1.338-1.338 1.338h-1.338v4.678c0 1.070-0.933 2.003-2.002 2.003-1.072 0-2.003-0.933-2.003-2.003v-4.678h-2.675v4.678c0 1.070-0.933 2.003-2.003 2.003s-2.003-0.933-2.003-2.003v-4.678h-1.338c-0.802 0-1.338-0.534-1.338-1.336v-13.36h16.037zM24.72 10.621c1.070 0 2.003 0.938 2.003 2.002v9.357c0 1.069-0.933 2.003-2.003 2.003s-2.003-0.934-2.003-2.003v-9.357c0-1.064 0.933-2 2.003-2zM2.003 10.621c1.070 0 2.003 0.938 2.003 2.002v9.357c0 1.069-0.933 2.003-2.003 2.003s-2.003-0.934-2.003-2.003v-9.357c0-1.064 0.933-2 2.003-2zM18.842 0.202c0.117-0.124 0.283-0.202 0.466-0.202s0.349 0.077 0.466 0.201l0 0c0.124 0.117 0.201 0.283 0.201 0.466s-0.077 0.349-0.201 0.466l-0 0-1.736 1.734c0.56 0.374 1.067 0.832 1.507 1.354 1.056 1.251 1.73 2.88 1.822 4.643l0.003 0.054c0.005 0.12 0.008 0.24 0.008 0.363h-16.035c0-0.122 0.003-0.243 0.010-0.363l0.003-0.054c0.093-1.781 0.765-3.389 1.831-4.655l-0.010 0.012c0.436-0.517 0.932-0.964 1.482-1.337l0.025-0.016-1.736-1.733c-0.124-0.117-0.202-0.283-0.202-0.466s0.077-0.349 0.201-0.466l0-0c0.117-0.124 0.283-0.202 0.466-0.202s0.349 0.077 0.466 0.201l0 0 1.792 1.789 0.085 0.082c1.062-0.533 2.256-0.798 3.584-0.8h0.038c1.328 0.002 2.52 0.267 3.584 0.8l0.083-0.082zM10.019 4.944c-0.553 0-1.002 0.448-1.002 1.002s0.448 1.002 1.002 1.002v0c0.553 0 1.002-0.448 1.002-1.002s-0.448-1.002-1.002-1.002v0zM16.704 4.944c-0.553 0-1.002 0.448-1.002 1.002s0.448 1.002 1.002 1.002v0c0.553 0 1.002-0.448 1.002-1.002s-0.448-1.002-1.002-1.002v0z"></path>
</svg>
<svg id="icon-icon-apple" width="20" height="20" viewBox="0 0 20 20" x="0" y="0">
<path d="M20.293 7.49c2.174 0 4.477 1.192 6.114 3.246-5.37 2.962-4.499 10.678 0.928 12.744-0.747 1.664-1.104 2.406-2.067 3.88-1.342 2.056-3.232 4.618-5.578 4.635-2.083 0.022-2.619-1.363-5.445-1.347-2.826 0.014-3.414 1.371-5.499 1.352-2.346-0.021-4.138-2.333-5.478-4.389-3.75-5.744-4.146-12.491-1.832-16.080 1.646-2.547 4.242-4.037 6.68-4.037 2.482 0 4.043 1.37 6.099 1.37 1.995 0 3.208-1.374 6.080-1.374zM19.666 0c0.285 1.944-0.504 3.848-1.549 5.194-1.115 1.446-3.042 2.565-4.906 2.506-0.341-1.861 0.531-3.776 1.592-5.067 1.162-1.422 3.155-2.514 4.862-2.632z"></path>
</svg>
<svg id="icon-icon-facebook" width="32" height="32" viewBox="0 0 32 32" x="192" y="0">
<path d="M30.234 0h-28.467c-0.976 0-1.766 0.79-1.766 1.766v28.469c0 0.974 0.79 1.765 1.766 1.765h15.328v-12.392h-4.173v-4.829h4.17v-3.563c0-4.133 2.525-6.384 6.213-6.384 1.766 0 3.283 0.131 3.726 0.19v4.32h-2.557c-2.006 0-2.394 0.955-2.394 2.352v3.085h4.782l-0.624 4.829h-4.16v12.392h8.157c0.973 0 1.763-0.79 1.763-1.766v-28.467c0.002-0.976-0.789-1.766-1.765-1.766z"></path>
</svg>
<svg id="icon-icon-instagram" width="32" height="32" viewBox="0 0 32 32" x="240" y="0">
<path d="M16 2.883c4.272 0 4.779 0.016 6.467 0.094 4.336 0.197 6.36 2.254 6.558 6.558 0.077 1.686 0.091 2.192 0.091 6.464 0 4.275-0.016 4.781-0.091 6.467-0.198 4.299-2.219 6.36-6.56 6.558-1.686 0.077-2.192 0.093-6.466 0.093-4.272 0-4.779-0.016-6.464-0.093-4.349-0.198-6.363-2.266-6.56-6.56-0.077-1.686-0.093-2.192-0.093-6.466 0-4.272 0.016-4.778 0.093-6.464 0.198-4.304 2.219-6.363 6.56-6.56 1.686-0.077 2.192-0.093 6.464-0.093zM16 0c-4.346 0-4.89 0.019-6.597 0.096-5.81 0.267-9.040 3.491-9.306 9.307-0.082 1.707-0.098 2.251-0.098 6.597s0.019 4.891 0.096 6.597c0.267 5.811 3.491 9.040 9.307 9.307 1.707 0.077 2.251 0.096 6.597 0.096s4.891-0.019 6.597-0.096c5.806-0.267 9.043-3.491 9.306-9.307 0.080-1.706 0.098-2.251 0.098-6.597s-0.019-4.89-0.096-6.595c-0.261-5.806-3.488-9.040-9.306-9.309-1.707-0.080-2.253-0.096-6.598-0.096zM16 7.784c-4.538 0-8.216 3.678-8.216 8.216s3.678 8.216 8.216 8.216v0c4.538 0 8.216-3.678 8.216-8.216s-3.678-8.216-8.216-8.216v0zM16 21.333c-2.945 0-5.333-2.388-5.333-5.333s2.388-5.333 5.333-5.333v0c2.945 0 5.333 2.388 5.333 5.333s-2.388 5.333-5.333 5.333v0zM24.541 5.541c-1.060 0-1.92 0.86-1.92 1.92s0.86 1.92 1.92 1.92v0c1.060 0 1.92-0.86 1.92-1.92s-0.86-1.92-1.92-1.92v0z"></path>
</svg>
<svg id="icon-icon-twitter" width="38" height="32" viewBox="0 0 38 32" x="288" y="0">
<path d="M37.647 4.088c-1.292 0.589-2.791 1.017-4.362 1.209l-0.074 0.007c1.598-0.966 2.8-2.452 3.382-4.218l0.016-0.055c-1.412 0.853-3.055 1.503-4.806 1.858l-0.099 0.017c-1.41-1.503-3.41-2.44-5.627-2.44-0.004 0-0.007 0-0.011 0h0.001c-4.988 0-8.651 4.653-7.526 9.481-6.434-0.331-12.093-3.387-15.888-8.027l-0.031-0.039c-0.657 1.113-1.045 2.452-1.045 3.882 0 2.669 1.352 5.022 3.408 6.412l0.027 0.017c-1.29-0.042-2.489-0.395-3.536-0.986l0.038 0.020c-0.085 3.576 2.481 6.925 6.195 7.671-0.608 0.172-1.307 0.271-2.029 0.271-0.516 0-1.021-0.050-1.508-0.147l0.049 0.008c1.016 3.093 3.85 5.298 7.208 5.363l0.008 0c-2.612 2.063-5.952 3.309-9.583 3.309-0.653 0-1.297-0.040-1.928-0.119l0.076 0.008c3.341 2.175 7.428 3.469 11.818 3.469 0.008 0 0.015 0 0.023 0h-0.001c14.34 0 22.443-12.111 21.954-22.974 1.517-1.106 2.795-2.431 3.818-3.943l0.035-0.056z"></path>
</svg>
<svg id="icon-logo" width="143" height="32" viewBox="0 0 143 32" x="336" y="0">
<path d="M2.754 18.416v-3.181h10.923l-0.465 0.807v-0.465c0-0.59-0.14-1.156-0.419-1.699s-0.711-0.988-1.296-1.334c-0.585-0.346-1.331-0.52-2.242-0.52s-1.694 0.194-2.351 0.582c-0.657 0.388-1.159 0.944-1.505 1.668s-0.52 1.598-0.52 2.622c0 1.055 0.168 1.958 0.504 2.707s0.838 1.327 1.505 1.73c0.667 0.403 1.497 0.605 2.49 0.605 0.641 0 1.195-0.059 1.66-0.178s0.846-0.271 1.14-0.458c0.295-0.186 0.52-0.393 0.675-0.621s0.248-0.45 0.279-0.667h4.748c-0.062 0.693-0.301 1.373-0.714 2.040s-0.988 1.267-1.722 1.8c-0.734 0.533-1.626 0.954-2.676 1.265s-2.247 0.465-3.592 0.465c-1.82 0-3.409-0.365-4.763-1.094s-2.405-1.738-3.15-3.025c-0.745-1.288-1.117-2.774-1.117-4.461 0-1.707 0.38-3.204 1.14-4.492s1.82-2.291 3.181-3.010c1.361-0.719 2.935-1.078 4.724-1.078 1.831 0 3.413 0.365 4.748 1.094 1.311 0.712 2.363 1.755 3.068 3.018l0.020 0.039c0.724 1.309 1.086 2.832 1.086 4.569 0 0.259-0.005 0.507-0.015 0.745s-0.026 0.414-0.047 0.527h-15.298zM27.567 25.584c-1.377 0-2.643-0.329-3.801-0.985s-2.090-1.632-2.793-2.925c-0.704-1.293-1.055-2.886-1.055-4.779 0-1.81 0.359-3.345 1.078-4.608 0.718-1.262 1.66-2.221 2.824-2.878 1.067-0.62 2.349-0.985 3.716-0.985 0.011 0 0.022 0 0.033 0h-0.002c1.303 0 2.495 0.331 3.576 0.993s1.947 1.564 2.599 2.707 0.977 2.459 0.977 3.949v0.295l-2.079 0.031v-0.202c0-0.776-0.186-1.443-0.559-2.001-0.364-0.548-0.851-0.987-1.422-1.286l-0.021-0.010c-0.535-0.288-1.171-0.457-1.846-0.458h-0c-1.067 0-1.986 0.354-2.762 1.063s-1.164 1.839-1.164 3.39 0.39 2.692 1.171 3.421c0.781 0.729 1.699 1.094 2.754 1.094 0.661 0 1.288-0.158 1.877-0.473 0.592-0.32 1.075-0.775 1.418-1.326l0.009-0.016c0.362-0.579 0.543-1.262 0.543-2.048l2.079 0.109c0 1.479-0.318 2.816-0.954 4.011s-1.495 2.146-2.575 2.855c-1.081 0.708-2.288 1.063-3.623 1.063zM32.64 31.992v-23.257h4.825v23.257h-4.825zM46.56 25.522c-1.169 0-2.13-0.189-2.886-0.566s-1.35-0.887-1.784-1.528c-0.418-0.611-0.735-1.328-0.908-2.1l-0.008-0.041c-0.168-0.717-0.264-1.539-0.264-2.385 0-0.002 0-0.003 0-0.005v0-10.162h4.81v8.89c0 0.693 0.078 1.328 0.233 1.908s0.442 1.044 0.861 1.396 1.016 0.527 1.792 0.527c0.755 0 1.396-0.214 1.924-0.644s0.931-0.979 1.21-1.652c0.265-0.614 0.419-1.328 0.419-2.079v0l1.35 1.102c0 0.023 0 0.049 0 0.076 0 1.007-0.173 1.973-0.492 2.87l0.019-0.060c-0.316 0.9-0.773 1.676-1.35 2.344l0.008-0.009c-0.575 0.658-1.281 1.186-2.080 1.544l-0.038 0.015c-0.833 0.372-1.772 0.559-2.816 0.559zM51.959 25.212v-16.477h4.81v16.477h-4.81zM65.523 25.553c-1.201 0-2.268-0.191-3.204-0.574s-1.668-0.936-2.195-1.66-0.791-1.603-0.791-2.638c0-1.169 0.32-2.121 0.962-2.855s1.491-1.296 2.552-1.683c1.060-0.388 2.211-0.644 3.452-0.768 1.809-0.175 3.058-0.337 3.747-0.481s1.032-0.398 1.032-0.76v-0.031c0-0.611-0.293-1.091-0.877-1.443s-1.399-0.527-2.444-0.527c-1.107 0-1.953 0.199-2.537 0.597-0.585 0.398-0.877 1.006-0.877 1.823h-4.732c0-1.324 0.359-2.441 1.078-3.351 0.719-0.911 1.693-1.6 2.925-2.071s2.622-0.706 4.174-0.706c1.448 0 2.787 0.22 4.018 0.659 1.231 0.439 2.221 1.099 2.971 1.978 0.75 0.88 1.125 1.997 1.125 3.351v7.121c0 0.424 0.013 0.83 0.039 1.218s0.085 0.742 0.178 1.063c0.103 0.362 0.233 0.662 0.388 0.9s0.284 0.403 0.388 0.497h-4.732c-0.118-0.133-0.228-0.28-0.326-0.436l-0.008-0.014c-0.149-0.228-0.278-0.489-0.373-0.767l-0.007-0.025c-0.111-0.309-0.206-0.678-0.267-1.057l-0.005-0.037c-0.055-0.364-0.086-0.783-0.086-1.21 0-0.030 0-0.060 0-0.090l-0 0.005 0.993 0.683c-0.29 0.683-0.758 1.27-1.404 1.761s-1.412 0.869-2.296 1.133-1.839 0.396-2.863 0.396zM66.811 21.954c0.754 0 1.46-0.137 2.118-0.411 0.662-0.278 1.207-0.723 1.598-1.284l0.008-0.012c0.413-0.59 0.621-1.36 0.621-2.312v-1.66l1.195 1.164c-0.665 0.244-1.461 0.457-2.28 0.6l-0.086 0.012c-0.895 0.16-1.787 0.287-2.676 0.38-1.055 0.104-1.844 0.281-2.366 0.535s-0.784 0.68-0.784 1.28c0 0.569 0.222 0.996 0.667 1.28s1.106 0.427 1.986 0.427zM83.974 0.962v24.25h-4.748v-24.25zM87.189 25.212v-16.477h4.763v16.477h-4.763zM89.563 6.051c-0.745 0-1.394-0.197-1.947-0.59s-0.83-0.946-0.83-1.66c0-0.724 0.276-1.283 0.83-1.676s1.202-0.59 1.947-0.59c0.754 0 1.409 0.197 1.963 0.59s0.83 0.951 0.83 1.676-0.277 1.28-0.83 1.668c-0.553 0.388-1.208 0.582-1.963 0.582zM99.279 21.442h8.937v3.77h-14.088v-3.569l8.719-9.325 0.109 0.171h-8.518v-3.755h13.591v3.569l-8.642 9.294zM112.019 18.416v-3.181h10.924l-0.465 0.807v-0.465c0-0.59-0.14-1.156-0.419-1.699s-0.711-0.988-1.296-1.334c-0.585-0.346-1.331-0.52-2.242-0.52s-1.694 0.194-2.351 0.582c-0.656 0.388-1.159 0.944-1.505 1.668s-0.52 1.598-0.52 2.622c0 1.055 0.168 1.958 0.504 2.707s0.838 1.327 1.505 1.73c0.667 0.403 1.497 0.605 2.49 0.605 0.641 0 1.195-0.059 1.66-0.178s0.846-0.271 1.14-0.458c0.295-0.186 0.52-0.393 0.675-0.621s0.248-0.45 0.279-0.667h4.748c-0.062 0.693-0.301 1.373-0.714 2.040s-0.988 1.267-1.722 1.8c-0.734 0.533-1.626 0.954-2.676 1.265s-2.247 0.465-3.592 0.465c-1.82 0-3.409-0.365-4.763-1.094s-2.405-1.738-3.15-3.025c-0.745-1.288-1.117-2.774-1.117-4.461 0-1.707 0.38-3.204 1.14-4.492s1.82-2.291 3.181-3.010c1.361-0.719 2.935-1.078 4.724-1.078 1.831 0 3.413 0.365 4.748 1.094 1.311 0.712 2.363 1.755 3.068 3.018l0.020 0.039c0.724 1.309 1.086 2.832 1.086 4.569 0 0.259-0.005 0.507-0.016 0.745s-0.026 0.414-0.047 0.527h-15.299zM129.944 25.212v-16.477h4.825v5.679l-0.993-0.621c0.114-0.776 0.321-1.489 0.621-2.141 0.301-0.657 0.692-1.219 1.165-1.7l-0.001 0.001c0.472-0.474 1.037-0.855 1.665-1.113l0.034-0.012c0.657-0.269 1.41-0.403 2.257-0.403 0.662 0 1.183 0.049 1.559 0.147 0.378 0.098 0.613 0.174 0.706 0.225l-0.791 4.313c-0.168-0.083-0.373-0.167-0.584-0.238l-0.036-0.011c-0.32-0.113-0.734-0.171-1.241-0.171-0.827 0-1.52 0.14-2.079 0.419-0.541 0.265-0.991 0.64-1.335 1.1l-0.007 0.009c-0.335 0.461-0.576 0.97-0.721 1.528-0.138 0.507-0.217 1.090-0.217 1.691v7.773h-4.825z"></path>
</svg>
</svg>
